# xmcd CD database file
#
# Track frame offsets:
#	150
#	14400
#	26550
#	38961
#	55817
#	75223
#	85993
#	110105
#	121916
#	134905
#	146792
#	161657
#	177838
#	188393
#	200261
#	214383
#	227058
#	242628
#	263459
#	275402
#	291152
#	306807
#	327768
#
# Disc length: 4543 seconds
#
# Revision: 0
# Processed by: cddbd v1.5.2PL0 Copyright (c) Steve Scherf et al.
# Submitted via: CDex 1.51
#
DISCID=4711bd17
DTITLE=Various JZZ - Alles Skiffle - oder? [CD 1]
DYEAR=2011
DGENRE=Jazz
TTITLE0=Host denn du mein' Brief ned griagt - Black Bottom Skiffle Group
TTITLE1=An de Eck steiht 'n Jung - J.J. Tabb Skiffle Group
TTITLE2=I Saw The Light - Lutz Eikelmann and Dickie Bishop
TTITLE3=Streamlight Train - Timmendorfer Skiffle Group
TTITLE4=Keep Your Hands Off Her - Lutz Eikelmann and Dickie Bishop
TTITLE5=John Brown's Vadder - Skiffle Rats
TTITLE6=Nobody's Child - Bastian Korn and Lutz Eikelmann
TTITLE7=I'm Satisfied With My Girl - The New Skiffle Spirits
TTITLE8=Puttin' On The Style - Brentwood Skifflers
TTITLE9=Old Dan Tucker - Skiffle Connexion
TTITLE10=I Can't Dance - The Rainy Skifflemen
TTITLE11=Doin' The New Lowdown - Sean Moyses and Lutz Eikelmann
TTITLE12=Tell Me Baby - 
TTITLE13=Allons A Lafayette - Zwei-Mann Kapelle
TTITLE14=Fishing Blues - Skiffle Track
TTITLE15=Have A Drink On Me - Steel Skiffle Gang
TTITLE16=Cake Walking Babys From Home - Jean Babtistes Jug Band
TTITLE17=Frankie and Johnny - Yellow Moon
TTITLE18=Schöne Frau'n - Black Bottom Skiffle Group
TTITLE19=Muleskinner Blues - Skiffle Track
TTITLE20=Mississippi Steamboat Blues - Rudis Slide and Washboard Band
TTITLE21=I've Got Rocks In My Bed - Bastian Korn and Lutz Eikelmann
TTITLE22=This Little Light - Steel Skiffle Gang
EXTD=YEAR: 2011
EXTT0=
EXTT1=
EXTT2=
EXTT3=
EXTT4=
EXTT5=
EXTT6=
EXTT7=
EXTT8=
EXTT9=
EXTT10=
EXTT11=
EXTT12=
EXTT13=
EXTT14=
EXTT15=
EXTT16=
EXTT17=
EXTT18=
EXTT19=
EXTT20=
EXTT21=
EXTT22=
PLAYORDER=
